# xmcd
#
# Track frame offsets: 
#        150
#        13458
#        36003
#        53461
#        68453
#        91273
#        108997
#        127315
#        139321
#        155040
#        174115
#        200852
#        222543
#        242846
#        273871
#
# Disc length: 4388 seconds
#
# Revision: 0
# Processed by: cddbd v1.5.2PL0 Copyright (c) Steve Scherf et al.
# Submitted via: ExactAudioCopyFreeDBPlugin 1.0
#
DISCID=dc11220f
DTITLE=Sunny and her Joy Boys - Introducing ...
DYEAR=2009
DGENRE=
TTITLE0=Stricktly From Dixie
TTITLE1=You're Driving Me Crazy
TTITLE2=That's My Desire
TTITLE3=Stop You're Breaking My Heart
TTITLE4=You're My Thrill
TTITLE5=Between The Devil And The Deep Blue Sea
TTITLE6=I Don't Mind
TTITLE7=Travellin' All Alone
TTITLE8=Today I Sing The Blues
TTITLE9=Wrap Your Troubles In Dreams
TTITLE10=I Got It Bad (and that ain't good)
TTITLE11=Undecided
TTITLE12=I'm Satisfied
TTITLE13=A Hundred Years From Today
TTITLE14=data
EXTD=
EXTT0=
EXTT1=
EXTT2=
EXTT3=
EXTT4=
EXTT5=
EXTT6=
EXTT7=
EXTT8=
EXTT9=
EXTT10=
EXTT11=
EXTT12=
EXTT13=
EXTT14=
PLAYORDER=
